<svg viewBox="0 0 1024 1024" version="1.1"
    width="1em" height="1em"
    xmlns:xlink="http://www.w3.org/1999/xlink">
    <path
        d="M880.64 51.2c51.2 0 92.16 40.96 92.16 92.16v737.28c0 51.2-40.96 92.16-92.16 92.16H143.36c-51.2 0-92.16-40.96-92.16-92.16V143.36C51.2 92.16 92.16 51.2 143.36 51.2h737.28m0-51.2H143.36C61.44 0 0 61.44 0 143.36v737.28C0 962.56 61.44 1024 143.36 1024h737.28c81.92 0 143.36-61.44 143.36-143.36V143.36C1024 61.44 962.56 0 880.64 0z"
        fill="currentColor"></path>
    <path
        d="M537.6 527.36c-5.12 66.56-20.48 122.88-66.56 174.08 87.04 46.08 204.8 61.44 363.52 71.68-10.24 10.24-20.48 35.84-25.6 51.2-163.84-10.24-286.72-30.72-384-87.04-46.08 35.84-112.64 66.56-209.92 87.04 0-5.12-10.24-30.72-25.6-40.96 87.04-20.48 153.6-46.08 194.56-71.68-40.96-35.84-76.8-81.92-107.52-143.36l46.08-15.36c25.6 51.2 61.44 92.16 102.4 122.88 40.96-40.96 56.32-92.16 56.32-148.48H245.76V296.96h240.64V189.44h51.2v107.52h240.64v230.4h-240.64z m-240.64-46.08h189.44V348.16H296.96v133.12z m240.64-133.12v133.12h189.44V348.16h-189.44z"
        fill="currentColor"></path>
</svg>