<?xml version="1.0" standalone="no"?><!DOCTYPE svg PUBLIC "-//W3C//DTD SVG 1.1//EN" "http://www.w3.org/Graphics/SVG/1.1/DTD/svg11.dtd"><svg t="1717790038099" class="icon" viewBox="0 0 1024 1024" version="1.1" xmlns="http://www.w3.org/2000/svg" p-id="15339" xmlns:xlink="http://www.w3.org/1999/xlink" width="48" height="48"><path d="M949.9648 262.2464a11.3664 11.3664 0 0 0-5.2224-8.9088L513.7408 5.3248a11.3664 11.3664 0 0 0-10.24 0L74.3424 256a11.3664 11.3664 0 0 0-4.9152 8.9088v496.8448a11.3664 11.3664 0 0 0 5.2224 8.9088L506.88 1018.6752a11.3664 11.3664 0 0 0 10.24 0L946.2784 769.024a11.3664 11.3664 0 0 0 4.9152-8.9088zM823.5008 667.648a53.1456 53.1456 0 0 1 0 11.3664l-7.68 13.4144a53.1456 53.1456 0 0 1-8.9088 7.2704L538.5216 861.7984l-12.5952 5.2224a24.6784 24.6784 0 0 1-8.9088 0 21.504 21.504 0 0 1-6.4512 0l-10.9568-4.5056-115.6096-55.808a6.0416 6.0416 0 0 1-2.8672-7.68l18.6368-40.96a6.0416 6.0416 0 0 1 7.68-2.8672l102.4 49.4592a12.1856 12.1856 0 0 0 10.24 0l242.9952-146.7392a11.776 11.776 0 0 0 6.0416-6.8608V372.9408a11.3664 11.3664 0 0 0-4.9152-8.9088L523.4688 221.7984a10.9568 10.9568 0 0 0-10.24 0L266.24 364.4416a11.3664 11.3664 0 0 0-5.2224 8.9088v283.7504a14.9504 14.9504 0 0 0 4.5056 10.24 183.6032 183.6032 0 0 0 73.0112 43.4176 73.728 73.728 0 0 0 40.96-19.8656 15.7696 15.7696 0 0 0 4.096-10.24V370.0736a6.0416 6.0416 0 0 1 5.632-5.632h43.008a6.0416 6.0416 0 0 1 5.632 5.632v318.2592a94.8224 94.8224 0 0 1 0 11.776 25.9072 25.9072 0 0 1-3.6864 10.24 128.1024 128.1024 0 0 1-93.2864 53.5552 162.2016 162.2016 0 0 1-128.1024-75.3664 28.3648 28.3648 0 0 1-4.9152-11.3664 83.1488 83.1488 0 0 1 0-11.776v-307.2a51.9168 51.9168 0 0 1 0-11.3664l8.0896-13.824a51.9168 51.9168 0 0 1 9.3184-7.2704l273.5104-158.3104a51.2 51.2 0 0 1 10.9568-4.5056h16.1792a51.2 51.2 0 0 1 10.24 4.5056l268.5952 158.5152a52.736 52.736 0 0 1 9.3184 7.2704l7.68 12.5952a52.736 52.736 0 0 1 0 11.3664v309.248z m-172.3392-94.8224a220.9792 220.9792 0 0 0-51.9168-17.408 474.7264 474.7264 0 0 1-77.824-24.3712 74.1376 74.1376 0 0 1-44.2368-68.9152 77.4144 77.4144 0 0 1 8.0896-38.912 81.1008 81.1008 0 0 1 25.088-28.3648A104.96 104.96 0 0 1 542.72 379.8016a153.6 153.6 0 0 1 44.2368-6.0416 174.08 174.08 0 0 1 62.0544 10.24 84.2752 84.2752 0 0 1 38.912 26.7264 166.6048 166.6048 0 0 1 16.1792 40.96 5.2224 5.2224 0 0 1-3.8912 6.3488h-0.6144l-38.0928 5.2224a7.2704 7.2704 0 0 1-7.68-4.9152 78.6432 78.6432 0 0 0-17.8176-30.72 71.68 71.68 0 0 0-45.7728-13.0048 83.1488 83.1488 0 0 0-50.2784 11.776 33.6896 33.6896 0 0 0-14.9504 27.136 27.9552 27.9552 0 0 0 6.144 17.5104 44.9536 44.9536 0 0 0 19.456 13.824q7.68 2.8672 44.9536 13.0048a627.0976 627.0976 0 0 1 75.3664 23.552 76.5952 76.5952 0 0 1 33.6896 26.7264A74.5472 74.5472 0 0 1 716.8 591.872a85.504 85.504 0 0 1-14.9504 47.8208 96.0512 96.0512 0 0 1-43.008 34.816 156.0576 156.0576 0 0 1-63.2832 12.1856 141.1072 141.1072 0 0 1-89.1904-24.3712 186.88 186.88 0 0 1-37.2736-66.4576 4.9152 4.9152 0 0 1 2.9696-6.2464h1.1264l40.96-6.0416a6.8608 6.8608 0 0 1 7.2704 4.9152 107.8272 107.8272 0 0 0 21.9136 40.96A81.1008 81.1008 0 0 0 597.2992 645.12a81.1008 81.1008 0 0 0 50.2784-13.4144 42.5984 42.5984 0 0 0 16.9984-33.6896 30.72 30.72 0 0 0-13.4144-25.088z" fill="#c9d1d9" p-id="15340"></path></svg>