<svg viewBox="0 0 1024 1024" xmlns="http://www.w3.org/2000/svg" fill="currentColor" height="1em" width="1em">
    <path
        d="M568.004 654.91V404.94c0-54.948-33.28-74.294-33.28-74.294s41.02-2.322 58.044 16.252c64.234-77.392 192.704-112.99 192.704-112.99l-89 119.954v301.05c32.504 55.72 113.764-24.764 139.304-58.042-14.704 41.79-82.034 147.816-184.964 207.406l-68.88-59.59-75.84 77.39c-80.056-10.176-167.164-31.73-237.59-107.572 34.044 9.98 50.914-2.5 50.914-20.122V443.57c-10.468-63.312-84.804-11.168-136.818 48.82-43.304 49.942-66.732 104.28-65.84 111.62-16.89-156.82 206.278-360.688 340.178-394.464-88.6 61.506-53.388 154.376-13.92 140.446v313.432c40.892 54.93 82.862 29.016 124.988-8.514z"
        p-id="4501"></path>
    <path
        d="M964.012 512c0 249.64-202.374 452.012-452.012 452.012S59.988 761.638 59.988 512 262.362 59.988 512 59.988 964.012 262.362 964.012 512zM512 0C229.23 0 0 229.23 0 512s229.23 512 512 512 512-229.23 512-512S794.77 0 512 0z"
        p-id="4502"></path>
</svg>