<?xml version="1.0" standalone="no"?><!DOCTYPE svg PUBLIC "-//W3C//DTD SVG 1.1//EN" "http://www.w3.org/Graphics/SVG/1.1/DTD/svg11.dtd"><svg t="1718121944015" class="icon" viewBox="0 0 1024 1024" version="1.1" xmlns="http://www.w3.org/2000/svg" p-id="5042" xmlns:xlink="http://www.w3.org/1999/xlink" width="48" height="48"><path d="M872.533333 741.973333l-345.173333 195.413334V785.066667l215.04-118.186667 130.133333 75.093333m23.466667-21.333333V311.893333L769.706667 384v263.68L896 720.64m-744.533333 21.333333l345.173333 194.986667V785.066667L281.6 666.88l-130.133333 75.093333m-23.466667-21.333333V311.893333L254.293333 384v263.68L128 720.64m14.933333-435.2L496.64 85.333333v147.2L270.08 357.12l-2.133333 0.853333-125.013334-72.533333m738.133334 0L527.36 85.333333v147.2l226.56 125.013334 1.706667 0.853333 125.44-72.96m-384.426667 465.066667l-212.053333-116.906667V402.773333l212.053333 122.453334v225.28m30.72 0l212.053333-116.48V402.773333l-212.053333 122.453334v225.28M298.666667 375.893333l213.333333-117.333333 213.333333 117.333333-213.333333 122.88-213.333333-122.88z" p-id="5043" fill="currentColor"></path></svg>